Coordinates
version=1
nRows=17
nColumns=40
inDegrees=yes

Units are S.I. units (second, meters, Newtons, ...)
Angles are in degrees.

endheader
time	pelvis_tilt	pelvis_list	pelvis_rotation	pelvis_tx	pelvis_ty	pelvis_tz	hip_flexion_r	hip_adduction_r	hip_rotation_r	knee_angle_r	knee_angle_r_beta	ankle_angle_r	subtalar_angle_r	mtp_angle_r	hip_flexion_l	hip_adduction_l	hip_rotation_l	knee_angle_l	knee_angle_l_beta	ankle_angle_l	subtalar_angle_l	mtp_angle_l	lumbar_extension	lumbar_bending	lumbar_rotation	arm_flex_r	arm_add_r	arm_rot_r	elbow_flex_r	pro_sup_r	wrist_flex_r	wrist_dev_r	arm_flex_l	arm_add_l	arm_rot_l	elbow_flex_l	pro_sup_l	wrist_flex_l	wrist_dev_l
      6.19864286	     -3.96144955	     -2.05736887	     -2.59617650	      0.71281430	      0.92630905	      0.45737143	     29.43300264	     -3.44517766	    -11.89861936	     17.83701897	     17.83701897	      1.88554738	      1.72692781	      4.57407220	      3.47222827	     -1.58429605	     -7.06796862	     13.79058445	     13.79058445	     15.87782231	     -5.91238297	     -6.35908339	    -10.33386118	      4.51678701	     -0.30921845	    -11.98258931	    -10.30560562	    -17.60524668	     24.74698309	     46.89956600	      0.00000000	      0.00000000	      4.34118113	    -15.61057472	     -4.32337844	     70.34567709	     46.84178140	      0.00000000	      0.00000000
      6.21228571	     -3.99475735	     -1.95246858	     -2.78825628	      0.71357454	      0.92499603	      0.45913936	     28.86086262	     -3.24976666	    -12.30534180	     16.32739419	     16.32739419	      2.00766780	      2.41081993	      5.22654432	      2.84030256	     -1.52771496	     -7.16047343	     13.60776842	     13.60776842	     16.28361090	     -5.97591084	     -6.58698429	    -10.14884261	      4.47470270	     -0.24697294	    -11.79290780	    -10.13793926	    -17.51646417	     24.84282301	     46.88771696	      0.00000000	      0.00000000	      4.37360592	    -15.36760163	     -4.27203397	     70.47765667	     46.84770463	      0.00000000	      0.00000000
      6.22592857	     -3.95121576	     -1.89826016	     -2.96133112	      0.71465663	      0.92382241	      0.46092696	     28.31597077	     -3.12891828	    -12.88972853	     15.64358338	     15.64358338	      2.23319352	      3.06603325	      5.55022319	      2.01934197	     -1.51570322	     -7.31728525	     13.26856889	     13.26856889	     16.70273050	     -5.87317544	     -6.72843463	    -10.07465699	      4.51592387	     -0.17023749	    -11.51648692	    -10.06619784	    -17.40359562	     24.97917675	     46.87308198	      0.00000000	      0.00000000	      4.33490053	    -15.04588414	     -4.25297368	     70.60500846	     46.85631724	      0.00000000	      0.00000000
      6.23957143	     -3.94170826	     -1.88859043	     -3.10940420	      0.71597168	      0.92255675	      0.46277549	     27.97690498	     -3.02984597	    -13.25812879	     15.77688619	     15.77688619	      2.47036938	      3.16889926	      5.40450286	      1.29066551	     -1.56012520	     -7.37556709	     13.06253209	     13.06253209	     17.19671549	     -5.83638538	     -6.77304613	     -9.91125368	      4.64084175	     -0.10898261	    -11.13825978	    -10.06402838	    -17.30861975	     25.16310845	     46.85939595	      0.00000000	      0.00000000	      4.22257473	    -14.70130763	     -4.23459770	     70.66895624	     46.86122290	      0.00000000	      0.00000000
      6.25321429	     -3.91784410	     -1.95167090	     -3.22572222	      0.71754405	      0.92132927	      0.46472401	     27.61648446	     -2.88986291	    -13.51430421	     16.30313653	     16.30313653	      2.64829726	      2.94916004	      4.98925485	      0.55618637	     -1.68849106	     -7.39325724	     12.91321886	     12.91321886	     17.73166402	     -5.84990045	     -6.70466031	     -9.72133678	      4.84504581	     -0.04507743	    -10.69571680	    -10.12685952	    -17.23012650	     25.38823655	     46.84625877	      0.00000000	      0.00000000	      4.05730285	    -14.35455033	     -4.22798097	     70.70111192	     46.86486240	      0.00000000	      0.00000000
      6.26685714	     -3.85071631	     -2.10018896	     -3.30016204	      0.71932655	      0.92018546	      0.46670637	     27.25411960	     -2.70118688	    -13.62968653	     17.19653118	     17.19653118	      2.81167637	      2.46904993	      4.37202944	     -0.19396394	     -1.91743360	     -7.37421672	     12.85077617	     12.85077617	     18.26354477	     -5.92367560	     -6.51805396	     -9.57788931	      5.18113736	      0.00686126	    -10.15604949	    -10.24149326	    -17.16691445	     25.66968106	     46.83307509	      0.00000000	      0.00000000	      3.82383946	    -13.94331822	     -4.20147138	     70.69981899	     46.86523249	      0.00000000	      0.00000000
      6.28050000	     -3.74357449	     -2.11900088	     -3.33664389	      0.72135475	      0.91903978	      0.46878802	     26.77611538	     -2.51231537	    -13.05683100	     17.92166656	     17.92166656	      1.49561892	      0.66124480	     -0.48312597	     -0.81199764	     -2.02174554	     -7.24819278	     13.24186308	     13.24186308	     20.03549824	     -5.60846815	     -3.35438633	     -9.45661283	      5.32607369	     -0.39343109	     -9.58151565	    -10.44894283	    -16.40920425	     26.71748069	     46.71905334	      0.00000000	      0.00000000	      3.05239637	    -13.42297454	     -5.52452134	     71.31967413	     47.00796214	      0.00000000	      0.00000000
      6.29414286	     -3.62203410	     -2.30033367	     -3.33050487	      0.72339563	      0.91799959	      0.47094013	     26.39920182	     -2.24872267	    -12.72470702	     19.01916880	     19.01916880	      1.22171567	     -0.57633823	     -2.56904627	     -1.34874449	     -2.36771446	     -7.28715097	     13.76036730	     13.76036730	     21.10827697	     -5.38860208	     -2.11464564	     -9.33891310	      5.69600273	     -0.41114223	     -8.93849619	    -10.72444136	    -15.64373587	     27.10231715	     46.63795529	      0.00000000	      0.00000000	      2.72915007	    -13.10823916	     -5.48417993	     71.23090009	     47.04760564	      0.00000000	      0.00000000
      6.30778571	     -3.40572201	     -2.55105996	     -3.27183405	      0.72551995	      0.91728956	      0.47307994	     25.96469404	     -1.97239292	    -12.53974176	     20.24765096	     20.24765096	      1.65505433	     -1.28119415	     -2.99109356	     -1.95337278	     -2.76260588	     -7.05877842	     14.27376275	     14.27376275	     21.49785518	     -5.79154812	     -2.04242269	     -9.35196427	      6.15485641	     -0.35187094	     -8.22457296	    -10.99099703	    -15.64023841	     27.44539177	     46.62918564	      0.00000000	      0.00000000	      2.46429204	    -12.76338221	     -5.35724182	     71.08886240	     47.03798397	      0.00000000	      0.00000000
      6.32142857	     -3.18317716	     -2.79182248	     -3.19726764	      0.72762601	      0.91678752	      0.47530513	     25.54049943	     -1.66036778	    -12.21270120	     21.40450952	     21.40450952	      2.14697936	     -2.11592857	     -3.38917608	     -2.39635001	     -3.17634607	     -6.79041534	     15.08397352	     15.08397352	     21.81731112	     -6.36638135	     -1.89452311	     -9.37873728	      6.59344798	     -0.29439333	     -7.40473492	    -11.24341188	    -15.65497065	     27.86252229	     46.61942615	      0.00000000	      0.00000000	      2.14242860	    -12.39687223	     -5.23339616	     70.91990179	     47.02710524	      0.00000000	      0.00000000
      6.33507143	     -3.19930821	     -2.96133339	     -3.04856372	      0.72932251	      0.91611815	      0.47760397	     25.45512120	     -1.28582818	    -11.38808454	     22.50251199	     22.50251199	      2.53854933	     -3.87396010	     -3.68912561	     -2.07844027	     -3.56616227	     -6.15843616	     16.76048483	     16.76048483	     22.25238776	     -7.46249191	     -1.26207289	     -9.12846101	      6.91864708	     -0.53856744	     -6.49928555	    -11.42296389	    -15.70508558	     28.58644476	     46.59714002	      0.00000000	      0.00000000	      1.68528667	    -12.21512756	     -5.32003059	     70.69425521	     47.03502383	      0.00000000	      0.00000000
      6.34871429	     -2.97216728	     -3.19660426	     -2.87122852	      0.73115556	      0.91621009	      0.47992181	     24.94738770	     -0.90481951	    -10.97597815	     23.28141449	     23.28141449	      3.08429716	     -4.83626215	     -3.93365979	     -1.94467408	     -4.05297150	     -5.68044704	     18.57853128	     18.57853128	     22.43471283	     -8.39583776	     -0.90949055	     -9.19400153	      7.31284436	     -0.59515773	     -5.54966859	    -11.68358537	    -15.75861332	     29.20516958	     46.58024344	      0.00000000	      0.00000000	      1.34120362	    -11.93601387	     -5.34970340	     70.49220291	     47.03911643	      0.00000000	      0.00000000
      6.36235714	     -2.72726816	     -3.40712400	     -2.66169240	      0.73284530	      0.91663954	      0.48229933	     24.36417242	     -0.55662268	    -10.69580650	     23.88140729	     23.88140729	      3.70953545	     -5.52748162	     -4.11612975	     -1.56628299	     -4.56148511	     -5.20737512	     20.82465221	     20.82465221	     22.29945619	     -9.37963093	     -0.93203739	     -9.29259800	      7.64428660	     -0.62879209	     -4.52112423	    -11.93172124	    -15.81550125	     29.78111726	     46.56646650	      0.00000000	      0.00000000	      1.04221306	    -11.69923121	     -5.30352624	     70.22020175	     47.03521159	      0.00000000	      0.00000000
      6.37600000	     -2.53685736	     -3.59408980	     -2.43404305	      0.73429876	      0.91725221	      0.48473043	     23.78258722	     -0.21257451	    -10.46430843	     24.28897454	     24.28897454	      4.34623258	     -6.16514669	     -4.20154138	     -0.79366271	     -5.09051354	     -4.71302874	     23.62607841	     23.62607841	     21.86681032	    -10.51110160	     -1.27592168	     -9.32546306	      7.92662516	     -0.70261846	     -3.38386666	    -12.17701527	    -15.89003534	     30.41479910	     46.55157519	      0.00000000	      0.00000000	      0.71503478	    -11.48570911	     -5.23141221	     69.85883418	     47.02870546	      0.00000000	      0.00000000
      6.38964286	     -2.33516512	     -3.77339236	     -2.16951211	      0.73556522	      0.91809556	      0.48719296	     23.10350151	      0.11310115	    -10.37444285	     24.50160177	     24.50160177	      4.98515942	     -6.59536568	     -4.25729181	      0.25092988	     -5.65319530	     -4.22332296	     26.87655620	     26.87655620	     21.04609618	    -11.66392719	     -1.96027578	     -9.38633642	      8.16941571	     -0.75468175	     -2.19728342	    -12.42080266	    -15.96391963	     31.04441705	     46.53700784	      0.00000000	      0.00000000	      0.43053176	    -11.31036738	     -5.12199752	     69.45422354	     47.01876893	      0.00000000	      0.00000000
      6.40328571	     -2.08340013	     -3.94792375	     -1.87822802	      0.73668813	      0.91916707	      0.48972465	     22.29527434	      0.42446272	    -10.42978823	     24.55969914	     24.55969914	      5.64147880	     -6.83166023	     -4.34701629	      1.45563370	     -6.24969066	     -3.76692907	     30.44817721	     30.44817721	     19.90165787	    -12.77239379	     -2.76636837	     -9.54191487	      8.35667570	     -0.71411073	     -0.94858553	    -12.67775844	    -16.01994812	     31.65669663	     46.52315443	      0.00000000	      0.00000000	      0.23489097	    -11.17535322	     -4.98491980	     69.06237449	     47.00592780	      0.00000000	      0.00000000
      6.41692857	     -1.97819701	     -4.08184252	     -1.60993183	      0.73751495	      0.92006928	      0.49228608	     21.63583381	      0.71862297	    -10.47156998	     24.54686703	     24.54686703	      6.20730495	     -7.11999285	     -4.29411139	      3.06780583	     -6.84460919	     -3.36317610	     34.33484717	     34.33484717	     18.01151623	    -14.08480215	     -4.63486280	     -9.47574984	      8.45689524	     -0.84252362	      0.40947722	    -12.87432254	    -16.08707764	     32.50147257	     46.49630183	      0.00000000	      0.00000000	     -0.01689319	    -11.13949322	     -4.84029339	     68.39538202	     46.99450217	      0.00000000	      0.00000000
